<svg width="25" height="24" viewBox="0 0 25 24" fill="none" xmlns="http://www.w3.org/2000/svg">
<path d="M20.1765 7V17C20.1765 21 19.1765 22 15.1765 22H9.17645C5.17645 22 4.17645 21 4.17645 17V7C4.17645 3 5.17645 2 9.17645 2H15.1765C19.1765 2 20.1765 3 20.1765 7Z" stroke="#F7F5F3" stroke-width="0.8" stroke-linecap="round" stroke-linejoin="round"/>
<path d="M14.1765 5.5H10.1765" stroke="#F7F5F3" stroke-width="0.8" stroke-linecap="round" stroke-linejoin="round"/>
<path d="M12.1765 19.1C13.0325 19.1 13.7265 18.406 13.7265 17.55C13.7265 16.694 13.0325 16 12.1765 16C11.3204 16 10.6265 16.694 10.6265 17.55C10.6265 18.406 11.3204 19.1 12.1765 19.1Z" stroke="#F7F5F3" stroke-width="0.8" stroke-linecap="round" stroke-linejoin="round"/>
</svg>
