<svg width="108" height="21" viewBox="0 0 108 21" fill="none" xmlns="http://www.w3.org/2000/svg">
<rect width="20" height="20" transform="translate(0 0.5)" fill="#219653"/>
<path d="M10 14.1761L13.0417 13.3616L14.3125 17.5L10 14.1761ZM17 8.82704H11.6458L10 3.5L8.35417 8.82704H3L7.33334 12.1289L5.6875 17.456L10.0208 14.1541L12.6875 12.1289L17 8.82704Z" fill="white"/>
<rect width="20" height="20" transform="translate(22 0.5)" fill="#219653"/>
<path d="M32 14.1761L35.0417 13.3616L36.3125 17.5L32 14.1761ZM39 8.82704H33.6458L32 3.5L30.3542 8.82704H25L29.3333 12.1289L27.6875 17.456L32.0208 14.1541L34.6875 12.1289L39 8.82704Z" fill="white"/>
<rect width="20" height="20" transform="translate(44 0.5)" fill="#219653"/>
<path d="M54 14.1761L57.0417 13.3616L58.3125 17.5L54 14.1761ZM61 8.82704H55.6458L54 3.5L52.3542 8.82704H47L51.3333 12.1289L49.6875 17.456L54.0208 14.1541L56.6875 12.1289L61 8.82704Z" fill="white"/>
<rect width="20" height="20" transform="translate(66 0.5)" fill="#219653"/>
<path d="M76 14.1761L79.0417 13.3616L80.3125 17.5L76 14.1761ZM83 8.82704H77.6458L76 3.5L74.3542 8.82704H69L73.3333 12.1289L71.6875 17.456L76.0208 14.1541L78.6875 12.1289L83 8.82704Z" fill="white"/>
<rect width="20" height="20" transform="translate(88 0.5)" fill="#219653"/>
<path d="M98 14.1761L101.042 13.3616L102.313 17.5L98 14.1761ZM105 8.82704H99.6458L98 3.5L96.3542 8.82704H91L95.3333 12.1289L93.6875 17.456L98.0208 14.1541L100.687 12.1289L105 8.82704Z" fill="white"/>
</svg>
